<?xml version="1.0" encoding="UTF-8"?>
<svg width="800px" height="800px" viewBox="0 0 800 800" version="1.1" xmlns="http://www.w3.org/2000/svg">
    <g stroke="none" stroke-width="1" fill="none" fill-rule="evenodd">
        <!-- Main Stylish H -->
        <path d="M170,150 C210,150 250,150 250,150 L250,350 L400,350 C440,350 450,320 450,300 L450,150 C450,150 490,150 530,150 L530,650 C530,650 490,650 450,650 L450,450 C450,430 440,400 400,400 L250,400 L250,650 C250,650 210,650 170,650 L170,150 Z" fill="#000000" fill-rule="nonzero"/>
        
        <!-- Stylish cutout/accent -->
        <path d="M200,200 L220,200 L220,350 L370,350 C390,350 400,340 400,320 L400,200 L420,200 L420,600 L400,600 L400,430 C400,410 390,400 370,400 L220,400 L220,600 L200,600 L200,200 Z" fill="#ffffff" fill-rule="nonzero"/>
        
        <!-- Additional accent element -->
        <path d="M550,250 C565,250 580,265 580,280 L580,520 C580,535 565,550 550,550 C535,550 520,535 520,520 L520,280 C520,265 535,250 550,250 Z" fill="#000000" fill-rule="nonzero"/>
    </g>
</svg> 